<svg width="70" height="70" viewBox="0 0 70 70" fill="none" xmlns="http://www.w3.org/2000/svg">
<path d="M34.9831 70C54.1663 70 70 54.1586 70 35C70 15.8414 54.1324 0 34.9492 0C15.7999 0 0 15.8414 0 35C0 54.1586 15.8337 70 34.9831 70ZM34.9831 63.0271C19.4538 63.0271 7.03722 50.5368 7.03722 35C7.03722 19.4632 19.4538 7.00677 34.9492 7.00677C50.4785 7.00677 62.9628 19.4632 62.9966 35C63.0304 50.5368 50.5123 63.0271 34.9831 63.0271ZM52.4408 35C52.4408 34.0861 52.1025 33.3414 51.3243 32.5967L39.8212 21.2573C39.2798 20.7157 38.6032 20.4449 37.7912 20.4449C36.2011 20.4449 35.0507 21.6296 35.0507 23.2205C35.0507 24.0667 35.4229 24.7776 35.9304 25.2853L40.0242 29.2118L43.8134 32.2921L36.9115 31.9536H20.4012C18.6757 31.9536 17.4577 33.2398 17.4577 35C17.4577 36.7263 18.6757 38.0464 20.4012 38.0464H36.9115L43.8473 37.7418L40.058 40.7882L35.9304 44.7147C35.3552 45.2224 35.0507 45.9333 35.0507 46.7795C35.0507 48.3704 36.2011 49.589 37.7912 49.589C38.6032 49.589 39.2798 49.2843 39.8212 48.7427L51.3243 37.4371C52.0686 36.6925 52.4408 35.9478 52.4408 35Z" fill="white"/>
</svg>
