<svg width="794" height="7" viewBox="0 0 794 7" fill="none" xmlns="http://www.w3.org/2000/svg">
<path d="M0 3C0 3.33333 0 3.66667 0 4C13.2333 4.19263 26.4667 4.37599 39.7 4.55007C163.861 6.18336 288.021 7 412.182 7C526.221 7 640.261 6.19714 754.3 4.59142C767.533 4.40509 780.767 4.20795 794 4C794 3.66667 794 3.33333 794 3C780.767 2.79205 767.533 2.59491 754.3 2.40858C640.261 0.802858 526.221 0 412.182 0C288.021 0 163.861 0.816644 39.7 2.44993C26.4667 2.62401 13.2333 2.80737 0 3Z" fill="#DA0000"/>
</svg>
