<svg width="1640" height="7" viewBox="0 0 1640 7" fill="none" xmlns="http://www.w3.org/2000/svg">
<path d="M0 3C0 3.33333 0 3.66667 0 4C27.325 4.19263 54.65 4.37599 81.975 4.55007C338.35 6.18336 594.724 7 851.099 7C1086.57 7 1322.05 6.19714 1557.53 4.59142C1584.85 4.40509 1612.18 4.20795 1639.5 4C1639.5 3.66667 1639.5 3.33333 1639.5 3C1612.18 2.79205 1584.85 2.59491 1557.53 2.40858C1322.05 0.802858 1086.57 0 851.099 0C594.724 0 338.35 0.816644 81.975 2.44993C54.65 2.62401 27.325 2.80737 0 3Z" fill="#DA0000"/>
</svg>
