<svg width="122" height="122" viewBox="0 0 122 122" fill="none" xmlns="http://www.w3.org/2000/svg">
<path d="M60.8333 0C27.3142 0 0 27.3142 0 60.8333C0 94.3525 27.3142 121.667 60.8333 121.667C94.3525 121.667 121.667 94.3525 121.667 60.8333C121.667 27.3142 94.3525 0 60.8333 0ZM89.9117 46.8417L55.4192 81.3342C54.5675 82.1858 53.4117 82.6725 52.195 82.6725C50.9783 82.6725 49.8225 82.1858 48.9708 81.3342L31.755 64.1183C29.9908 62.3542 29.9908 59.4342 31.755 57.67C33.5192 55.9058 36.4392 55.9058 38.2033 57.67L52.195 71.6617L83.4633 40.3933C85.2275 38.6292 88.1475 38.6292 89.9117 40.3933C91.6758 42.1575 91.6758 45.0167 89.9117 46.8417Z" fill="#548039"/>
</svg>
