<svg width="24" height="24" viewBox="0 0 24 24" fill="none" xmlns="http://www.w3.org/2000/svg">
<path d="M20.7113 24C19.8753 24 19.0394 23.6922 18.3795 23.0325L0.95692 5.61795C-0.318973 4.34265 -0.318973 2.23179 0.95692 0.956482C2.23281 -0.318827 4.34464 -0.318827 5.62053 0.956482L23.0431 18.371C24.319 19.6464 24.319 21.7572 23.0431 23.0325C22.3831 23.6482 21.5472 24 20.7113 24Z" fill="#548039"/>
<path d="M3.28873 24C2.45279 24 1.61687 23.6922 0.95692 23.0325C-0.318973 21.7572 -0.318973 19.6464 0.95692 18.371L18.3795 0.956482C19.6554 -0.318827 21.7672 -0.318827 23.0431 0.956482C24.319 2.23179 24.319 4.34265 23.0431 5.61795L5.62053 23.0325C4.96058 23.6922 4.12466 24 3.28873 24Z" fill="#548039"/>
</svg>
