<svg width="47" height="47" viewBox="0 0 47 47" fill="none" xmlns="http://www.w3.org/2000/svg">
<path d="M46.2527 23.1208C46.2527 10.3482 35.8935 0 23.1208 0C10.3482 0 0 10.3482 0 23.1208C0 34.6592 8.45265 44.2249 19.5061 45.9661V29.8102H13.6322V23.1208H19.5061V18.0294C19.5061 12.2327 22.9555 9.03673 28.2453 9.03673C30.78 9.03673 33.4249 9.48857 33.4249 9.48857V15.1751H30.5045C27.6282 15.1751 26.7355 16.9604 26.7355 18.7898V23.1318H33.1494L32.1245 29.8212H26.7355V45.9771C37.789 44.2469 46.2416 34.6812 46.2416 23.1318L46.2527 23.1208Z" fill="#FBD500"/>
<path d="M32.1246 29.8099L33.1495 23.1205H26.7356V18.7785C26.7356 16.9491 27.6282 15.1638 30.5046 15.1638H33.425V9.47723C33.425 9.47723 30.7801 9.02539 28.2454 9.02539C22.9666 9.02539 19.5062 12.2213 19.5062 18.018V23.1095H13.6323V29.7989H19.5062V45.9548C20.6854 46.1421 21.8866 46.2413 23.1209 46.2413C24.3552 46.2413 25.5564 46.1421 26.7356 45.9548V29.7989H32.1246V29.8099Z" fill="white"/>
</svg>
