<svg width="47" height="47" viewBox="0 0 47 47" fill="none" xmlns="http://www.w3.org/2000/svg">
<path d="M23.1208 46.2416C35.8901 46.2416 46.2416 35.8901 46.2416 23.1208C46.2416 10.3515 35.8901 0 23.1208 0C10.3515 0 0 10.3515 0 23.1208C0 35.8901 10.3515 46.2416 23.1208 46.2416Z" fill="#FBD500"/>
<path d="M30.3061 14.3711C29.4244 14.3711 28.7191 15.0874 28.7191 15.958C28.7191 16.8286 29.4354 17.545 30.3061 17.545C31.1767 17.545 31.893 16.8286 31.893 15.958C31.893 15.0874 31.1767 14.3711 30.3061 14.3711Z" fill="white"/>
<path d="M23.2309 16.4102C19.55 16.4102 16.5525 19.4077 16.5525 23.0885C16.5525 26.7693 19.55 29.7669 23.2309 29.7669C26.9117 29.7669 29.9092 26.7693 29.9092 23.0885C29.9092 19.4077 26.9117 16.4102 23.2309 16.4102ZM23.2309 27.3644C20.8725 27.3644 18.9549 25.4469 18.9549 23.0885C18.9549 20.7302 20.8725 18.8126 23.2309 18.8126C25.5892 18.8126 27.5068 20.7302 27.5068 23.0885C27.5068 25.4469 25.5892 27.3644 23.2309 27.3644Z" fill="white"/>
<path d="M28.5317 36.6434H17.7096C13.2243 36.6434 9.56555 32.9846 9.56555 28.4993V17.6773C9.56555 13.192 13.2243 9.5332 17.7096 9.5332H28.5317C33.017 9.5332 36.6757 13.181 36.6757 17.6773V28.4993C36.6757 32.9846 33.017 36.6434 28.5317 36.6434ZM17.7096 12.0899C14.6239 12.0899 12.1113 14.6026 12.1113 17.6883V28.5103C12.1113 31.5961 14.6239 34.1087 17.7096 34.1087H28.5317C31.6174 34.1087 34.13 31.5961 34.13 28.5103V17.6883C34.13 14.6026 31.6174 12.0899 28.5317 12.0899H17.7096Z" fill="white"/>
</svg>
